<svg xmlns="http://www.w3.org/2000/svg" xmlns:xlink="http://www.w3.org/1999/xlink" zoomAndPan="magnify" preserveAspectRatio="xMidYMid meet" version="1.0" viewBox="22.32 0 72.96 29.03"><defs><g></g><clipPath id="8db4b2a340"><path d="M 78 5 L 95.28125 5 L 95.28125 29.03125 L 78 29.03125 Z M 78 5 " clip-rule="nonzero"></path></clipPath><clipPath id="cdb53ccbac"><path d="M 68.429688 0 L 86 0 L 86 24 L 68.429688 24 Z M 68.429688 0 " clip-rule="nonzero"></path></clipPath></defs><g clip-path="url(#8db4b2a340)"><path fill="#000000" d="M 95.269531 28.917969 C 94.496094 27.695312 93.722656 26.472656 92.949219 25.253906 L 91.789062 23.421875 L 90.625 21.59375 L 88.289062 17.9375 L 86.097656 14.511719 L 88.917969 10.398438 L 89.660156 9.316406 C 89.910156 8.957031 90.15625 8.597656 90.40625 8.238281 L 91.90625 6.085938 L 92.511719 5.214844 L 84.515625 5.160156 L 84.34375 5.460938 C 84.097656 5.898438 83.859375 6.339844 83.613281 6.78125 L 83.433594 7.109375 L 82.894531 8.105469 L 82.179688 9.433594 L 81.816406 10.121094 C 81.679688 9.910156 81.539062 9.703125 81.402344 9.492188 L 80.976562 8.863281 L 80.546875 8.230469 L 80.117188 7.605469 L 79.679688 6.976562 C 79.390625 6.5625 79.09375 6.148438 78.792969 5.738281 C 78.773438 5.703125 78.746094 5.695312 78.707031 5.714844 C 78.671875 5.734375 78.664062 5.761719 78.6875 5.800781 C 78.902344 6.257812 79.128906 6.714844 79.359375 7.167969 L 79.703125 7.847656 L 80.050781 8.523438 L 80.402344 9.199219 L 80.757812 9.871094 C 80.996094 10.316406 81.234375 10.765625 81.476562 11.210938 L 81.828125 11.855469 L 82.242188 11.207031 C 82.515625 10.78125 82.777344 10.355469 83.046875 9.929688 L 83.84375 8.652344 L 84.242188 8.007812 L 84.4375 7.6875 L 84.632812 7.371094 C 84.832031 7.042969 85.03125 6.71875 85.226562 6.390625 C 85.382812 6.390625 90.164062 6.375 90.355469 6.371094 L 89.535156 7.667969 C 89.300781 8.035156 89.0625 8.402344 88.828125 8.769531 L 88.117188 9.871094 L 85.277344 14.28125 L 85.128906 14.511719 L 85.277344 14.722656 L 87.738281 18.296875 L 90.207031 21.863281 L 91.441406 23.648438 L 92.683594 25.429688 C 93.507812 26.617188 94.335938 27.804688 95.167969 28.988281 C 95.1875 29.019531 95.21875 29.027344 95.25 29.003906 C 95.285156 28.984375 95.289062 28.953125 95.269531 28.921875 Z M 95.269531 28.917969 " fill-opacity="1" fill-rule="nonzero"></path></g><g clip-path="url(#cdb53ccbac)"><path fill="#000000" d="M 84.359375 21.839844 L 84.015625 21.160156 L 83.3125 19.808594 L 82.957031 19.136719 C 82.71875 18.6875 82.480469 18.238281 82.238281 17.792969 L 81.890625 17.152344 L 81.472656 17.800781 C 81.203125 18.222656 80.9375 18.648438 80.667969 19.074219 L 79.871094 20.355469 L 79.476562 20.996094 L 79.277344 21.316406 L 79.082031 21.636719 C 78.882812 21.960938 78.6875 22.289062 78.492188 22.613281 C 78.335938 22.613281 73.554688 22.632812 73.363281 22.636719 L 74.183594 21.339844 C 74.417969 20.972656 74.652344 20.605469 74.890625 20.234375 L 75.597656 19.132812 L 78.441406 14.722656 L 78.589844 14.496094 L 78.441406 14.28125 L 75.976562 10.71875 L 72.273438 5.375 L 71.035156 3.597656 C 70.210938 2.414062 69.382812 1.230469 68.550781 0.046875 C 68.527344 0.015625 68.5 0.0117188 68.46875 0.03125 C 68.433594 0.0546875 68.425781 0.0820312 68.449219 0.117188 C 69.222656 1.335938 69.992188 2.554688 70.765625 3.773438 L 73.09375 7.429688 L 75.425781 11.078125 L 77.617188 14.496094 L 74.800781 18.609375 L 74.058594 19.691406 C 73.808594 20.050781 73.5625 20.410156 73.3125 20.769531 L 71.8125 22.921875 L 71.207031 23.792969 L 79.203125 23.84375 L 79.375 23.542969 C 79.621094 23.105469 79.863281 22.664062 80.105469 22.222656 L 80.285156 21.894531 L 80.464844 21.5625 L 80.828125 20.902344 L 81.535156 19.574219 L 81.898438 18.886719 L 82.316406 19.511719 L 82.742188 20.144531 L 83.171875 20.773438 L 83.597656 21.402344 L 84.035156 22.027344 C 84.324219 22.445312 84.621094 22.859375 84.921875 23.269531 C 84.945312 23.300781 84.972656 23.304688 85.003906 23.285156 C 85.035156 23.265625 85.042969 23.242188 85.027344 23.207031 C 84.8125 22.75 84.589844 22.292969 84.359375 21.839844 Z M 84.359375 21.839844 " fill-opacity="1" fill-rule="nonzero"></path></g><g fill="#000000" fill-opacity="1"><g transform="translate(21.088161, 21.545447)"><g><path d="M 7.171875 -2.375 C 7.742188 -2.375 8.191406 -2.492188 8.515625 -2.734375 C 8.847656 -2.972656 9.082031 -3.269531 9.21875 -3.625 C 9.363281 -3.976562 9.453125 -4.34375 9.484375 -4.71875 C 9.515625 -5.03125 9.675781 -5.1875 9.96875 -5.1875 L 12.703125 -5.1875 C 12.847656 -5.1875 12.960938 -5.128906 13.046875 -5.015625 C 13.140625 -4.910156 13.1875 -4.796875 13.1875 -4.671875 C 13.125 -3.722656 12.882812 -2.878906 12.46875 -2.140625 C 12.0625 -1.398438 11.429688 -0.820312 10.578125 -0.40625 C 9.734375 0.0078125 8.613281 0.21875 7.21875 0.21875 C 5.71875 0.21875 4.523438 -0.0390625 3.640625 -0.5625 C 2.765625 -1.082031 2.144531 -1.753906 1.78125 -2.578125 C 1.414062 -3.410156 1.234375 -4.28125 1.234375 -5.1875 C 1.234375 -5.53125 1.238281 -5.851562 1.25 -6.15625 C 1.269531 -6.46875 1.289062 -6.8125 1.3125 -7.1875 C 1.332031 -7.570312 1.34375 -8.039062 1.34375 -8.59375 C 1.34375 -9.15625 1.332031 -9.625 1.3125 -10 C 1.289062 -10.375 1.269531 -10.71875 1.25 -11.03125 C 1.238281 -11.34375 1.234375 -11.671875 1.234375 -12.015625 C 1.234375 -13.054688 1.421875 -13.984375 1.796875 -14.796875 C 2.179688 -15.609375 2.804688 -16.25 3.671875 -16.71875 C 4.546875 -17.1875 5.726562 -17.421875 7.21875 -17.421875 C 8.613281 -17.421875 9.734375 -17.1875 10.578125 -16.71875 C 11.429688 -16.25 12.0625 -15.644531 12.46875 -14.90625 C 12.882812 -14.164062 13.125 -13.378906 13.1875 -12.546875 C 13.1875 -12.398438 13.140625 -12.273438 13.046875 -12.171875 C 12.960938 -12.066406 12.847656 -12.015625 12.703125 -12.015625 L 9.796875 -12.015625 C 9.503906 -12.015625 9.34375 -12.171875 9.3125 -12.484375 C 9.289062 -12.753906 9.226562 -13.070312 9.125 -13.4375 C 9.019531 -13.8125 8.820312 -14.132812 8.53125 -14.40625 C 8.25 -14.675781 7.828125 -14.8125 7.265625 -14.8125 C 6.609375 -14.8125 6.125 -14.660156 5.8125 -14.359375 C 5.507812 -14.066406 5.316406 -13.703125 5.234375 -13.265625 C 5.148438 -12.835938 5.109375 -12.421875 5.109375 -12.015625 L 5.109375 -5.1875 C 5.109375 -5.039062 5.117188 -4.8125 5.140625 -4.5 C 5.171875 -4.195312 5.242188 -3.882812 5.359375 -3.5625 C 5.484375 -3.238281 5.6875 -2.957031 5.96875 -2.71875 C 6.257812 -2.488281 6.660156 -2.375 7.171875 -2.375 Z M 7.171875 -2.375 "></path></g></g></g><g fill="#000000" fill-opacity="1"><g transform="translate(35.500735, 21.545447)"><g><path d="M 11.765625 0 C 11.484375 0 11.320312 -0.128906 11.28125 -0.390625 C 11.238281 -0.617188 11.175781 -0.945312 11.09375 -1.375 C 11.019531 -1.800781 10.925781 -2.328125 10.8125 -2.953125 C 10.757812 -3.210938 10.601562 -3.34375 10.34375 -3.34375 L 5.890625 -3.34375 C 5.628906 -3.34375 5.46875 -3.210938 5.40625 -2.953125 C 5.289062 -2.328125 5.195312 -1.800781 5.125 -1.375 C 5.050781 -0.945312 4.988281 -0.617188 4.9375 -0.390625 C 4.90625 -0.128906 4.75 0 4.46875 0 L 1.59375 0 C 1.425781 0 1.296875 -0.0625 1.203125 -0.1875 C 1.109375 -0.3125 1.082031 -0.445312 1.125 -0.59375 C 1.257812 -1.164062 1.484375 -2.125 1.796875 -3.46875 C 2.109375 -4.820312 2.484375 -6.53125 2.921875 -8.59375 C 3.398438 -10.800781 3.769531 -12.597656 4.03125 -13.984375 C 4.289062 -15.367188 4.460938 -16.304688 4.546875 -16.796875 C 4.597656 -17.054688 4.753906 -17.1875 5.015625 -17.1875 L 11.203125 -17.1875 C 11.484375 -17.1875 11.644531 -17.054688 11.6875 -16.796875 C 11.769531 -16.304688 11.941406 -15.367188 12.203125 -13.984375 C 12.460938 -12.597656 12.820312 -10.800781 13.28125 -8.59375 C 13.726562 -6.53125 14.109375 -4.820312 14.421875 -3.46875 C 14.734375 -2.125 14.960938 -1.164062 15.109375 -0.59375 C 15.140625 -0.445312 15.101562 -0.3125 15 -0.1875 C 14.90625 -0.0625 14.785156 0 14.640625 0 Z M 6.609375 -5.9375 L 9.625 -5.9375 C 9.769531 -5.9375 9.890625 -5.992188 9.984375 -6.109375 C 10.085938 -6.222656 10.125 -6.359375 10.09375 -6.515625 C 10.03125 -6.835938 9.960938 -7.175781 9.890625 -7.53125 C 9.816406 -7.882812 9.738281 -8.238281 9.65625 -8.59375 C 9.40625 -9.757812 9.175781 -10.8125 8.96875 -11.75 C 8.769531 -12.695312 8.585938 -13.515625 8.421875 -14.203125 C 8.390625 -14.359375 8.285156 -14.4375 8.109375 -14.4375 C 7.941406 -14.4375 7.832031 -14.359375 7.78125 -14.203125 C 7.632812 -13.515625 7.453125 -12.695312 7.234375 -11.75 C 7.023438 -10.8125 6.800781 -9.757812 6.5625 -8.59375 C 6.476562 -8.238281 6.398438 -7.882812 6.328125 -7.53125 C 6.253906 -7.175781 6.179688 -6.835938 6.109375 -6.515625 C 6.078125 -6.359375 6.109375 -6.222656 6.203125 -6.109375 C 6.304688 -5.992188 6.441406 -5.9375 6.609375 -5.9375 Z M 6.609375 -5.9375 "></path></g></g></g><g fill="#000000" fill-opacity="1"><g transform="translate(51.730225, 21.545447)"><g><path d="M 12.625 0 L 9.5 0 C 9.375 0 9.257812 -0.046875 9.15625 -0.140625 C 9.0625 -0.242188 9.015625 -0.359375 9.015625 -0.484375 L 9.015625 -4.28125 C 9.015625 -4.65625 8.957031 -5.019531 8.84375 -5.375 C 8.726562 -5.738281 8.519531 -6.035156 8.21875 -6.265625 C 7.914062 -6.503906 7.492188 -6.625 6.953125 -6.625 L 5.421875 -6.625 C 5.296875 -6.625 5.179688 -6.578125 5.078125 -6.484375 C 4.984375 -6.390625 4.945312 -6.273438 4.96875 -6.140625 C 4.96875 -4.703125 4.976562 -3.503906 5 -2.546875 C 5.019531 -1.597656 5.039062 -0.910156 5.0625 -0.484375 C 5.0625 -0.359375 5.015625 -0.242188 4.921875 -0.140625 C 4.835938 -0.046875 4.71875 0 4.5625 0 L 1.71875 0 C 1.570312 0 1.453125 -0.046875 1.359375 -0.140625 C 1.273438 -0.242188 1.234375 -0.359375 1.234375 -0.484375 C 1.242188 -1.023438 1.265625 -1.976562 1.296875 -3.34375 C 1.328125 -4.71875 1.34375 -6.46875 1.34375 -8.59375 C 1.34375 -10.738281 1.328125 -12.488281 1.296875 -13.84375 C 1.265625 -15.207031 1.242188 -16.160156 1.234375 -16.703125 C 1.234375 -16.835938 1.273438 -16.953125 1.359375 -17.046875 C 1.453125 -17.140625 1.570312 -17.1875 1.71875 -17.1875 L 7.046875 -17.1875 C 7.847656 -17.1875 8.609375 -17.113281 9.328125 -16.96875 C 10.054688 -16.820312 10.695312 -16.5625 11.25 -16.1875 C 11.800781 -15.8125 12.238281 -15.285156 12.5625 -14.609375 C 12.882812 -13.941406 13.046875 -13.082031 13.046875 -12.03125 C 13.046875 -11.070312 12.828125 -10.273438 12.390625 -9.640625 C 11.953125 -9.003906 11.390625 -8.507812 10.703125 -8.15625 C 10.640625 -8.125 10.609375 -8.066406 10.609375 -7.984375 C 10.609375 -7.898438 10.648438 -7.832031 10.734375 -7.78125 C 11.359375 -7.488281 11.875 -7.0625 12.28125 -6.5 C 12.6875 -5.9375 12.890625 -5.195312 12.890625 -4.28125 C 12.890625 -3.394531 12.914062 -2.632812 12.96875 -2 C 13.019531 -1.375 13.066406 -0.890625 13.109375 -0.546875 C 13.128906 -0.390625 13.085938 -0.257812 12.984375 -0.15625 C 12.890625 -0.0507812 12.769531 0 12.625 0 Z M 7.09375 -14.59375 L 5.484375 -14.59375 C 5.347656 -14.59375 5.226562 -14.546875 5.125 -14.453125 C 5.03125 -14.359375 4.984375 -14.25 4.984375 -14.125 C 4.984375 -13.53125 4.972656 -12.867188 4.953125 -12.140625 C 4.941406 -11.410156 4.9375 -10.609375 4.9375 -9.734375 C 4.9375 -9.578125 4.984375 -9.453125 5.078125 -9.359375 C 5.179688 -9.273438 5.296875 -9.234375 5.421875 -9.234375 L 7.09375 -9.234375 C 7.632812 -9.234375 8.054688 -9.390625 8.359375 -9.703125 C 8.660156 -10.015625 8.867188 -10.382812 8.984375 -10.8125 C 9.097656 -11.25 9.15625 -11.65625 9.15625 -12.03125 C 9.15625 -12.6875 9.035156 -13.195312 8.796875 -13.5625 C 8.566406 -13.9375 8.289062 -14.203125 7.96875 -14.359375 C 7.644531 -14.515625 7.351562 -14.59375 7.09375 -14.59375 Z M 7.09375 -14.59375 "></path></g></g></g></svg>